<svg xmlns="http://www.w3.org/2000/svg" width="auto" height="auto" fill="none" viewBox="0 0 256 256"><rect width="200" height="15" x="28" y="71" fill="#CDCDCD"/><path fill="#E8E8E8" d="M28 86H228V210C228 216.075 223.075 221 217 221H39C32.9249 221 28 216.075 28 210V86Z"/><path fill="url(#paint0_linear_1_18)" d="M73 36L88 21V86H73V36Z"/><path fill="url(#paint1_linear_1_18)" d="M183 36L168 21V86H183V36Z"/><rect width="80" height="15" x="88" y="21" fill="#D9D9D9"/><rect width="33" height="33" x="94" y="156" fill="#00A4EF"/><rect width="33" height="33" x="132" y="156" fill="#FFB900"/><rect width="33" height="33" x="94" y="118" fill="#F25022"/><rect width="33" height="33" x="132" y="118" fill="#7FBA00"/><defs><linearGradient id="paint0_linear_1_18" x1="80.5" x2="80.5" y1="21" y2="86" gradientUnits="userSpaceOnUse"><stop offset=".956" stop-color="#F2F2F2"/><stop offset="1" stop-color="#E8E8E8"/></linearGradient><linearGradient id="paint1_linear_1_18" x1="175.5" x2="175.5" y1="21" y2="86" gradientUnits="userSpaceOnUse"><stop offset=".956" stop-color="#F2F2F2"/><stop offset="1" stop-color="#E8E8E8"/></linearGradient></defs></svg>